<svg width="18" height="18" viewBox="0 0 48 48">
  <path fill="#EA4335" d="M24 9.5c3.54 0 6.04 1.54 7.43 2.83l5.43-5.43C33.64 4.1 29.22 2 24 2 14.82 2 7.08 7.7 4.23 15.94l6.58 5.11C12.53 14.09 17.77 9.5 24 9.5z"/>
  <path fill="#4285F4" d="M46.1 24.55c0-1.64-.15-3.22-.42-4.75H24v9h12.44c-.54 2.9-2.19 5.36-4.66 7.02l7.12 5.53C43.98 37.03 46.1 31.3 46.1 24.55z"/>
  <path fill="#FBBC05" d="M10.81 28.05a14.5 14.5 0 010-8.1l-6.58-5.11a23.94 23.94 0 000 18.32l6.58-5.11z"/>
  <path fill="#34A853" d="M24 46c6.48 0 11.91-2.14 15.88-5.79l-7.12-5.53c-1.98 1.33-4.52 2.12-8.76 2.12-6.23 0-11.47-4.59-13.19-10.56l-6.58 5.11C7.08 40.3 14.82 46 24 46z"/>
</svg>